<?xml version="1.0" standalone="no"?>
<!DOCTYPE svg PUBLIC "-//W3C//DTD SVG 20010904//EN"
 "http://www.w3.org/TR/2001/REC-SVG-20010904/DTD/svg10.dtd">
<svg version="1.0" xmlns="http://www.w3.org/2000/svg"
 width="216.000000pt" height="233.000000pt" viewBox="0 0 216.000000 233.000000"
 preserveAspectRatio="xMidYMid meet">

<g transform="translate(0.000000,233.000000) scale(0.100000,-0.100000)"
fill="#000000" stroke="none">
<path d="M968 2320 c-238 -43 -387 -175 -419 -370 -5 -35 -11 -148 -12 -250
l-2 -186 -30 -20 c-42 -27 -59 -83 -45 -148 14 -70 64 -153 105 -177 26 -15
36 -30 42 -57 4 -20 6 -43 5 -49 -8 -39 86 -162 173 -228 l66 -50 -5 -82 c-6
-99 -22 -128 -78 -144 -47 -12 -47 -13 25 -117 64 -93 210 -243 255 -261 48
-20 99 -1 165 59 54 50 155 187 195 266 l21 41 -40 12 c-54 16 -72 47 -77 139
l-4 77 64 52 c94 74 131 136 167 278 8 30 19 45 45 59 61 33 116 137 116 222
0 58 -14 92 -48 111 l-28 16 4 161 c8 323 -59 490 -234 583 -33 17 -87 39
-122 48 -76 19 -238 27 -304 15z"/>
</g>
</svg>
